<svg xmlns="http://www.w3.org/2000/svg" width="20.143" height="23.5" viewBox="0 0 20.143 23.5">
  <g id="logout" transform="translate(-4.5 -2.25)">
    <path id="Path_21" data-name="Path 21" d="M6.179,25.75H16.25a1.68,1.68,0,0,0,1.679-1.679V21.554H16.25v2.518H6.179V3.929H16.25V6.446h1.679V3.929A1.68,1.68,0,0,0,16.25,2.25H6.179A1.68,1.68,0,0,0,4.5,3.929V24.071A1.68,1.68,0,0,0,6.179,25.75Z"/>
    <path id="Path_22" data-name="Path 22" d="M20.134,20.134l3.01-3.009H11.25V15.446H23.145l-3.009-3.009,1.186-1.187,5.036,5.036-5.036,5.036Z" transform="translate(-1.714 -2.286)"/>
  </g>
</svg>
