<svg xmlns="http://www.w3.org/2000/svg" width="14.35" height="15.461" viewBox="0 0 14.35 15.461">
  <g id="request-quote" transform="translate(-4.5 -2.25)">
    <path id="Path_16" data-name="Path 16" d="M14.439,13.293v3.313H5.6V3.354h5.522V2.25H5.6a1.1,1.1,0,0,0-1.1,1.1V16.606a1.1,1.1,0,0,0,1.1,1.1h8.835a1.1,1.1,0,0,0,1.1-1.1V13.293Z" fill="#232323"/>
    <path id="Path_17" data-name="Path 17" d="M22.04,4.328,20.218,2.506a.883.883,0,0,0-1.237,0l-7.73,7.73V13.3H14.3l7.73-7.73a.883.883,0,0,0,0-1.237Zm-8.195,7.863H12.355V10.7l5.212-5.218,1.5,1.5Zm6-5.991-1.5-1.5L19.6,3.45l1.5,1.5Z" transform="translate(-3.438 -0.002)" fill="#232323"/>
  </g>
</svg>
