<svg xmlns="http://www.w3.org/2000/svg" width="37.299" height="37.299" viewBox="0 0 37.299 37.299">
  <g id="user-avatar-filled-alt" transform="translate(-2.25 -2.25)">
    <path id="Path_1" data-name="Path 1" d="M20.9,2.25A18.649,18.649,0,1,0,39.549,20.9,18.649,18.649,0,0,0,20.9,2.25ZM31.556,32.781v-.81A6.939,6.939,0,0,0,24.9,24.9H16.9a6.927,6.927,0,0,0-6.647,7.074c0,.014-.013.03-.013.044v.779a15.992,15.992,0,1,1,21.314-.013Z" transform="translate(0 0)" fill="#2a2a2a"/>
    <path id="Path_2" data-name="Path 2" d="M19.036,7.875A6.661,6.661,0,1,0,25.7,14.536a6.661,6.661,0,0,0-6.661-6.661Z" transform="translate(1.864 1.036)" fill="#2a2a2a"/>
  </g>
</svg>
